<?xml version="1.0" standalone="no"?>
<!DOCTYPE svg PUBLIC "-//W3C//DTD SVG 20010904//EN"
 "http://www.w3.org/TR/2001/REC-SVG-20010904/DTD/svg10.dtd">
<svg version="1.0" xmlns="http://www.w3.org/2000/svg"
 width="107.000000pt" height="54.000000pt" viewBox="0 0 107.000000 54.000000"
 preserveAspectRatio="xMidYMid meet">

<g transform="translate(0.000000,54.000000) scale(0.100000,-0.100000)"
fill="#000000" stroke="none">
<path d="M760 491 c-105 -21 -191 -123 -176 -206 8 -41 21 -38 31 5 6 28 21
47 30 38 10 -10 -31 -111 -47 -116 -16 -4 -16 -6 1 -41 41 -78 116 -124 202
-124 86 1 160 47 200 126 l19 37 -30 0 -30 0 0 60 0 60 30 0 30 0 -19 38 c-47
90 -147 141 -241 123z m-20 -176 c0 -10 -10 -15 -30 -15 -16 0 -30 -4 -30 -10
0 -5 11 -10 25 -10 14 0 25 -4 25 -10 0 -5 -11 -10 -25 -10 -16 0 -25 -6 -25
-15 0 -10 10 -15 30 -15 17 0 30 -4 30 -10 0 -5 -18 -10 -40 -10 l-40 0 0 60
0 60 40 0 c29 0 40 -4 40 -15z m81 5 c20 -11 26 -45 9 -55 -7 -4 -7 -12 0 -25
13 -25 13 -30 -4 -30 -8 0 -18 9 -21 20 -3 11 -11 20 -16 20 -5 0 -9 -9 -9
-20 0 -11 -4 -20 -10 -20 -6 0 -10 27 -10 60 0 54 2 60 21 60 11 0 29 -5 40
-10z m100 0 c30 -17 23 -33 -11 -25 -16 4 -30 4 -30 0 0 -3 14 -11 30 -16 22
-8 30 -17 30 -35 0 -30 -32 -49 -60 -34 -21 11 -28 40 -10 40 6 0 10 -4 10
-10 0 -5 9 -10 20 -10 30 0 24 17 -10 29 -32 11 -40 37 -18 59 15 15 24 15 49
2z"/>
<path d="M780 285 c0 -10 7 -15 18 -13 21 4 19 22 -2 26 -10 2 -16 -3 -16 -13z"/>
<path d="M980 290 c0 -5 9 -10 20 -10 11 0 20 5 20 10 0 6 -9 10 -20 10 -11 0
-20 -4 -20 -10z"/>
<path d="M980 245 c0 -8 9 -15 19 -15 10 0 21 7 25 15 4 11 -1 15 -19 15 -16
0 -25 -6 -25 -15z"/>
</g>
</svg>
